<svg xmlns="http://www.w3.org/2000/svg" width="120.285" height="105.013" viewBox="0 0 120.285 105.013">
  <g id="noun_design_2930355" transform="translate(0.519 0.513)">
    <g id="Group_2" data-name="Group 2" transform="translate(0 0)">
      <path id="Path_5" data-name="Path 5" d="M68.624,82.091a32.237,32.237,0,0,0,7.845-18.94,32.1,32.1,0,0,0-3.344-.647,33.171,33.171,0,0,0-9,0,32.116,32.116,0,0,0-3.344.647A32.234,32.234,0,0,0,68.624,82.091ZM76.54,60.364a32.212,32.212,0,0,0-7.916-20.73,32.212,32.212,0,0,0-7.916,20.734q1.493-.343,3.042-.559a35.247,35.247,0,0,1,9.747,0q1.547.211,3.042.554ZM58.112,63.938A32.416,32.416,0,0,0,36.294,92.306a32.116,32.116,0,0,0,3.344.647,32.736,32.736,0,0,0,4.5.306,32.276,32.276,0,0,0,22.6-9.181,35.007,35.007,0,0,1-8.634-20.141ZM70.5,84.079a32.438,32.438,0,0,0,30.437,8.227A32.413,32.413,0,0,0,79.124,63.938,35.014,35.014,0,0,1,70.49,84.079Zm22.6-58.345a35.137,35.137,0,0,1,10.644,68.616V94.6a35.131,35.131,0,0,1-70.261,0v-.245a35.137,35.137,0,1,1,24.488-65.78h0A35.169,35.169,0,0,1,68.612,35.68a35.176,35.176,0,0,1,10.634-7.109l.074-.029A35,35,0,0,1,93.1,25.73Zm22.909,12.221a32.448,32.448,0,0,0-35.617-6.9l-.064.029a32.479,32.479,0,0,0-9.833,6.57,35.056,35.056,0,0,1,8.771,23.22v.245a35.164,35.164,0,0,1,24.345,30.4,32.411,32.411,0,0,0,12.4-53.569Zm-49.274-.309a32.472,32.472,0,0,0-9.833-6.567h0A32.411,32.411,0,1,0,33.62,91.527a35.161,35.161,0,0,1,24.348-30.4v-.245a35.056,35.056,0,0,1,8.771-23.22ZM36.223,95.094a32.4,32.4,0,1,0,64.795,0q-1.5.343-3.045.559a35.459,35.459,0,0,1-4.874.338,35.036,35.036,0,0,1-24.48-9.938,35.137,35.137,0,0,1-29.354,9.6Q37.718,95.437,36.223,95.094Z" transform="translate(-8.992 -25.727)" fill="#611f69" stroke="#611f69" stroke-width="1"/>
    </g>
  </g>
</svg>
