<svg id="noun_Quick_Time_3077838" data-name="noun_Quick Time_3077838" xmlns="http://www.w3.org/2000/svg" width="63.974" height="42.423" viewBox="0 0 63.974 42.423">
  <path id="Path_4" data-name="Path 4" d="M44.069,20.754a21.211,21.211,0,1,0,0,42.423.989.989,0,0,0,.142-.009l.026.005.9-.022.049,0,1.028-.078.049-.005.049-.006.715-.459.093-.845-.6-.6-.461-.05-.042.005h-.005l-.952.071-.874.023-.014.008a.989.989,0,0,0-.1-.005,19.235,19.235,0,1,1,8.048-36.7l-1.206,1.657,5.958.555-2.36-5.49-1.2,1.65a21.131,21.131,0,0,0-9.236-2.117Zm-.147,3.794a.988.988,0,0,0-.974,1V38.826a3.148,3.148,0,0,0-1.727,4.33l-6.69,6.269a.988.988,0,1,0,1.351,1.443L42.6,44.576a3.155,3.155,0,1,0,2.328-5.829V25.55a.988.988,0,0,0-1-1ZM6.66,26.713a.988.988,0,1,0,0,1.977H23.074a.988.988,0,1,0,0-1.977H6.66ZM2.295,40.978a.988.988,0,1,0,0,1.977H18.709a.988.988,0,1,0,0-1.977Zm61.818.015-.688.5-.12.447-.027,1.017-.068.907.306.793.809.263.713-.465.143-.441.071-.932,0-.05.026-1.041-.346-.777-.821-.22ZM63.5,46.825l-.79.313-.228.4-.04.142-.3.9-.287.727.059.848.7.489.818-.233.265-.38.3-.753L64,49.235l.318-.939.015-.046.048-.169-.143-.839-.741-.417Zm-2.235,5.406-.847.071-.335.32-.049.077,0,0-.533.751-.009.012-.525.668-.187.83.528.668.849.01.364-.286.534-.681.028-.037.564-.793.027-.04.075-.117.107-.844-.589-.614Zm-54.6,3.011a.988.988,0,1,0,0,1.977H23.074a.988.988,0,1,0,0-1.977H6.659Zm50.064,1.345-.4.208h0l-.006.005h0l-.019.015-.009.008-.69.542-.013.009-.776.553-.413.743.317.789.812.251.43-.172.79-.561.037-.028.764-.6.063-.054.341-.78-.39-.755-.834-.172ZM52,59.629l-.459.064-.867.341-.9.3-.015.005,0,.006-.625.549.035.851.681.508.463-.019.031-.008.046-.015.939-.318.046-.017.887-.349.579-.623-.117-.842L52,59.629Z" transform="translate(-1.306 -20.754)"/>
</svg>
