<svg xmlns="http://www.w3.org/2000/svg" width="41.801" height="43.132" viewBox="0 0 41.801 43.132">
  <g id="Group_4" data-name="Group 4" transform="translate(-320.141 -178.368)">
    <g id="noun_earning_2472104" transform="translate(320.5 178.718)">
      <g id="Group_3" data-name="Group 3" transform="translate(0 0)">
        <path id="Path_6" data-name="Path 6" d="M22.239,277.51a6.234,6.234,0,0,0-4.83,2.58.35.35,0,1,0,.539.446,5.44,5.44,0,0,1,4.3-2.326c2.4-.024,5.058,1.6,7.98,2.76,2.77,1.1,5.846,1.661,9.124-.124v11.1a.35.35,0,1,0,.7,0V280.312a.35.35,0,0,0-.536-.3c-3.266,2.036-6.185,1.433-9.029.3s-5.539-2.836-8.246-2.809Zm-1.516,3a6.234,6.234,0,0,0-4.83,2.58.35.35,0,0,0-.081.224v11.639a.35.35,0,0,0,.621.224,5.367,5.367,0,0,1,4.592-2.323,14.659,14.659,0,0,1,5.078,1.615,23.9,23.9,0,0,0,5.756,2.073,8.981,8.981,0,0,0,6.512-1.293.35.35,0,0,0,.164-.3V283.317a.35.35,0,0,0-.534-.3c-3.266,2.036-6.187,1.433-9.031.3s-5.539-2.837-8.246-2.81Zm.007.7c2.4-.024,5.058,1.6,7.98,2.761,2.77,1.1,5.847,1.66,9.124-.124v10.874a8.219,8.219,0,0,1-5.857,1.13,23.531,23.531,0,0,1-5.585-2.021,15.013,15.013,0,0,0-5.337-1.677,6.062,6.062,0,0,0-4.543,2.071V283.472a5.427,5.427,0,0,1,4.217-2.257Zm7.8,19.824h0l-.021,0c-2.254.194-4.834.027-7.7.3h-.022a23.39,23.39,0,0,0-5.483,1.151,21.677,21.677,0,0,0-3.073,1.357,1.893,1.893,0,0,0-1.977-1.264l-7.2.736a1.89,1.89,0,0,0-1.685,2.069l1.313,12.851a1.89,1.89,0,0,0,2.069,1.685l7.2-.737a1.892,1.892,0,0,0,1.687-2.069l-.127-1.239,2.252-.83c4.651.05,9.284,1.431,13.767.657h.043l.007,0h.007l.005,0,.011,0,.053-.009c.044-.009.105-.018.181-.033.152-.03.359-.074.588-.134a3.872,3.872,0,0,0,1.389-.6l9.118-7.227a4.1,4.1,0,0,0,1.38-2.014,2.545,2.545,0,0,0-.379-2.337,3.061,3.061,0,0,0-4.291-.5l0,0-.005,0-8.077,6.06c-2.941-.043-4.3.127-5.313-.029a.351.351,0,0,0-.1,0,.766.766,0,0,1-.869-.684l-.078-.677a.793.793,0,0,1,.694-.884l4.851-.6.038-.009a2.5,2.5,0,0,0-.219-4.977h-.035Zm-.01.7a1.833,1.833,0,0,1,1.737,1.637c.087.8-.319,1.64-1.63,1.956l-4.818.6a1.5,1.5,0,0,0-1.3,1.659l.078.678a1.482,1.482,0,0,0,1.649,1.3c1.179.168,2.43-.016,5.433.038a.35.35,0,0,0,.217-.071l8.18-6.136.007-.005a2.345,2.345,0,0,1,3.314.384,1.809,1.809,0,0,1,.257,1.7,3.454,3.454,0,0,1-1.143,1.661l-9.119,7.227a3.68,3.68,0,0,1-1.132.476c-.209.056-.4.1-.543.124l-.166.032-.041.007h-.006l-.005,0h-.016c-4.293.761-8.929-.627-13.752-.669a.346.346,0,0,0-.124.022l-2.156.8-1.08-10.572a21.842,21.842,0,0,1,3.171-1.434h0a22.685,22.685,0,0,1,5.321-1.117c2.792-.264,5.341-.1,7.669-.294Zm-18.073,1.531a1.177,1.177,0,0,1,1.18,1.067l0,.034a.351.351,0,0,0,0,.036l1.151,11.272a.35.35,0,0,0,.007.043l.15,1.465a1.178,1.178,0,0,1-1.061,1.3l-7.2.736a1.175,1.175,0,0,1-1.3-1.06l-1.314-12.85a1.176,1.176,0,0,1,1.059-1.3l7.2-.737a.986.986,0,0,1,.123-.007ZM7.621,313c-.074,0-.148,0-.223.01A2.184,2.184,0,1,0,7.622,313Zm0,.7a1.488,1.488,0,1,1-.153.008,1.516,1.516,0,0,1,.153-.007Z" transform="translate(-1.352 -277.509)" stroke="#000" stroke-width="0.7"/>
      </g>
    </g>
    <g id="noun_Rupee_3006945" transform="translate(343.32 187.411)">
      <path id="Path_7" data-name="Path 7" d="M26.08,14.418H24.548a.967.967,0,0,0-.074-.209,1.393,1.393,0,0,0-.482-.523c-.057-.039-.117-.074-.177-.108H26.08a.21.21,0,1,0,0-.42H21.715a.21.21,0,0,0,0,.42h.841a4.12,4.12,0,0,1,.848.262,1.837,1.837,0,0,1,.539.345.772.772,0,0,1,.156.211c0,.007.006.014.009.021H21.715a.21.21,0,0,0,0,.42h2.4c-.005.017-.011.034-.018.052a1.746,1.746,0,0,1-.354.528,5.2,5.2,0,0,1-.8.684.249.249,0,0,0-.057.316l.07.1c.156.229.55.807.935,1.38.193.286.383.572.54.811s.282.433.338.53a.21.21,0,0,0,.362-.212c-.038-.065-.095-.155-.166-.267-.25-.389-.683-1.033-1.053-1.582-.241-.356-.455-.67-.576-.848a4.492,4.492,0,0,0,.9-.859,1.846,1.846,0,0,0,.247-.433,1.247,1.247,0,0,0,.06-.2H26.08a.21.21,0,1,0,0-.42Z" transform="translate(-21.505 -13.159)"/>
    </g>
  </g>
</svg>
