<?xml version="1.0" encoding="utf-8"?>
<!-- Generator: Adobe Illustrator 23.0.2, SVG Export Plug-In . SVG Version: 6.00 Build 0)  -->
<svg version="1.1" id="Layer_1" xmlns="http://www.w3.org/2000/svg" xmlns:xlink="http://www.w3.org/1999/xlink" x="0px" y="0px"
	 viewBox="0 0 94.7 16.7" style="enable-background:new 0 0 94.7 16.7;" xml:space="preserve">
<style type="text/css">
	.st0{fill:#231F20;}
	.st1{fill:#7C277D;}
</style>
<g>
	<path class="st0" d="M55.9,0.4h3.7c2.9,0,3.4,1.9,3.4,5.2c0,1.6,0.2,5.3-3.5,5.3h-3.6V0.4z M58.1,9.3h1.1c1.3,0,1.6-1,1.6-3.7
		c0-1.9,0-3.7-1.5-3.7h-1.1V9.3z"/>
	<path class="st0" d="M66.3,7.6c0,0.9,0,2.2,0.9,2.2c0.7,0,0.9-0.7,0.9-1.3h2.1c0,0.8-0.3,1.5-0.8,1.9c-0.5,0.5-1.2,0.7-2.2,0.7
		c-2.7,0-3-1.6-3-3.9c0-2,0.3-3.7,3-3.7c2.8,0,3.1,1.8,3,4.2H66.3z M68.2,6.4c0-0.7,0-1.7-1-1.7c-1,0-0.9,1.1-0.9,1.7H68.2z"/>
	<path class="st0" d="M73,8.6c0,0.3,0,0.7,0.1,0.9c0.1,0.2,0.3,0.4,0.7,0.4s0.8-0.3,0.8-0.8c0-1.6-3.6-1.2-3.6-3.6
		c0-1.6,1.6-2.1,2.9-2.1c1.4,0,2.7,0.7,2.6,2.3h-2c0-0.5-0.1-0.8-0.2-1c-0.1-0.1-0.3-0.2-0.5-0.2c-0.5,0-0.7,0.3-0.7,0.8
		c0,1.2,3.6,1.1,3.6,3.5c0,1.3-1.1,2.3-2.8,2.3c-1.8,0-3-0.5-2.9-2.5H73z"/>
	<path class="st0" d="M79.8,10.9h-2.1V3.5h2.1V10.9z"/>
	<path class="st0" d="M87,3.5v7.7c0,0.5,0,2.5-2.8,2.5c-1.5,0-2.9-0.4-2.9-2.2h2c0,0.3,0,0.6,0.2,0.7c0.1,0.2,0.4,0.3,0.7,0.3
		c0.5,0,0.8-0.5,0.8-1.2V10h0c-0.3,0.6-0.9,0.9-1.6,0.9c-2.3,0-2.2-2.1-2.2-3.7c0-1.6,0-3.7,2.2-3.7c0.7,0,1.4,0.3,1.7,1h0V3.5H87z
		 M84.1,9.6c0.7,0,0.8-0.8,0.8-2.3c0-1.6-0.1-2.5-0.8-2.5c-0.8,0-0.9,0.5-0.9,2.8C83.2,8.1,83.1,9.6,84.1,9.6z"/>
	<path class="st0" d="M90.4,4.3L90.4,4.3c0.2-0.3,0.5-0.6,0.8-0.7c0.3-0.1,0.6-0.2,1-0.2c1,0,1.8,0.6,1.8,1.6v5.9H92V5.8
		c0-0.7-0.1-1.2-0.8-1.2c-0.7,0-0.8,0.5-0.8,1.2v5.1h-2.1V3.5h2.1V4.3z"/>
	<path class="st1" d="M7.9,0.4v7.5c0,1.6-0.9,3.3-3.6,3.3c-2.4,0-3.6-1.3-3.6-3.3V0.4h2.2v7.4c0,1.3,0.6,1.8,1.4,1.8
		c1,0,1.4-0.6,1.4-1.8V0.4H7.9z"/>
	<path class="st1" d="M11.3,4.3L11.3,4.3c0.2-0.3,0.5-0.6,0.8-0.7c0.3-0.1,0.6-0.2,1-0.2C14.1,3.4,15,4,15,5v5.9h-2.1V5.8
		c0-0.7-0.1-1.2-0.8-1.2c-0.7,0-0.8,0.5-0.8,1.2v5.1H9.3V3.5h2.1V4.3z"/>
	<g>
		<path class="st1" d="M18.5,0.4v10.6h-2.1V0.4H18.5z"/>
		<path class="st1" d="M22.3,10.9h-2.1V3.5h2.1V10.9z"/>
	</g>
	<path class="st1" d="M25.7,4.3L25.7,4.3c0.4-0.7,1-0.9,1.8-0.9c0.7,0,1.3,0.4,1.7,0.9c0.5-0.6,1.1-0.9,1.9-0.9c1,0,1.8,0.6,1.8,1.6
		v5.9h-2.1V5.8c0-0.7-0.1-1.2-0.8-1.2c-0.7,0-0.8,0.5-0.8,1.2v5.1h-2V5.8c0-0.7-0.1-1.2-0.8-1.2c-0.7,0-0.8,0.5-0.8,1.2v5.1h-2.1
		V3.5h2.1V4.3z"/>
	<path class="st1" d="M36.3,10.9h-2.1V3.5h2.1V10.9z"/>
	<path class="st1" d="M37,3.5h0.8V2.4l2.1-0.9v2.1H41v1.3h-1.1v4c0,0.6,0,0.9,0.7,0.9c0.1,0,0.3,0,0.4,0v1.3c-0.3,0-0.6,0.1-1.1,0.1
		c-1.8,0-2-1.2-2-1.6V4.8H37V3.5z"/>
	<path class="st1" d="M43.5,7.6c0,0.9,0,2.2,0.9,2.2c0.7,0,0.9-0.7,0.9-1.3h2.1c0,0.8-0.3,1.5-0.8,1.9c-0.5,0.5-1.2,0.7-2.2,0.7
		c-2.7,0-3-1.6-3-3.9c0-2,0.3-3.7,3-3.7c2.8,0,3.1,1.8,3,4.2H43.5z M45.4,6.4c0-0.7,0-1.7-1-1.7c-1,0-0.9,1.1-0.9,1.7H45.4z"/>
	<path class="st1" d="M52.3,10.9v-0.8h0c-0.4,0.7-1,1-1.7,1c-2.1,0-2.1-2.4-2.1-3.9c0-1.5-0.1-3.8,2-3.8c0.7,0,1.3,0.2,1.7,0.8h0
		V0.4h2.1v10.6H52.3z M52.2,7.2c0-1.5,0-2.5-0.8-2.5c-0.9,0-0.9,1-0.9,2.5c0,1.9,0.1,2.6,0.9,2.6C52.1,9.8,52.2,9,52.2,7.2z"/>
	<polygon class="st1" points="19.4,16.4 18.2,14.6 17,12.8 19.4,12.8 21.8,12.8 20.6,14.6 	"/>
</g>
</svg>
