<svg xmlns="http://www.w3.org/2000/svg" width="34.764" height="42.327" viewBox="0 0 34.764 42.327">
  <g id="noun_Designer_1262181" transform="translate(-16.777 -6.501)">
    <g id="Group_4347" data-name="Group 4347" transform="translate(16.777 6.501)">
      <path id="Path_4558" data-name="Path 4558" d="M55.473,29.477a2.98,2.98,0,0,1-.917,2.172l.04.1a3.246,3.246,0,0,1-1.075,3.78l-.236.18v.07a2.761,2.761,0,0,1-2.768,2.75H45.2V40.7a2.759,2.759,0,0,0,2.75,2.75,2.756,2.756,0,0,0,2.65-2.013h-2.65a.736.736,0,0,1,0-1.472h3.486a.734.734,0,0,1,.736.736,4.226,4.226,0,0,1-4.222,4.222A4.229,4.229,0,0,1,43.731,40.7V38.531h-6a.736.736,0,0,1,0-1.472H50.518a1.286,1.286,0,0,0,1.255-.975h-.368a.736.736,0,1,1,0-1.472h.9l.335-.254a1.784,1.784,0,0,0,.707-1.351,1.734,1.734,0,0,0-.121-.721l-.048-.125H52.09a.736.736,0,0,1,0-1.472h1.332l.007,0A1.507,1.507,0,0,0,54,29.5a1.423,1.423,0,0,0-.383-.99l-.239-.254H52.09a.736.736,0,0,1,0-1.472h1.516A1.939,1.939,0,0,0,54,25.623a1.53,1.53,0,0,0-1.524-1.52H43.021a.736.736,0,1,1,0-1.472h.714V16.572l-.007-.125a.544.544,0,0,0-.018-.129,1.989,1.989,0,0,0-1.745-1.465l-.335-.04a.387.387,0,0,0-.434.383l0,1.321a9.482,9.482,0,0,1-2.8,6.717l-2.779,2.753V39.441a.736.736,0,0,1-.736.736H32.751a.736.736,0,0,1,0-1.472h1.4V24.456h-1.4a.736.736,0,0,1,0-1.472h2.135a.736.736,0,0,1,.736.736v.2l1.741-1.726a7.98,7.98,0,0,0,2.363-5.668l0-1.307A1.856,1.856,0,0,1,41.8,13.351l.335.04a3.571,3.571,0,0,1,1.6.582V12.309a.677.677,0,0,1,.033-.2l.011-.044a.78.78,0,0,1,.085-.177h0l3.482-5.076a.741.741,0,0,1,1.215,0l3.486,5.076a.722.722,0,0,1,.129.416v8.249a.736.736,0,0,1-1.472,0v-8.02l-2.75-4L45.87,11.573h2.083a.734.734,0,0,1,.736.736v8.208a.736.736,0,1,1-1.472,0V13.045H45.2l0,9.585h7.27a3.009,3.009,0,0,1,3,2.992,3.42,3.42,0,0,1-.659,2.01A2.893,2.893,0,0,1,55.473,29.477Z" transform="translate(-26.406 -6.501)"/>
      <path id="Path_4559" data-name="Path 4559" d="M28.883,60.967a.736.736,0,0,0-.736.736v8.59a.736.736,0,0,0,1.472,0V61.7A.736.736,0,0,0,28.883,60.967Z" transform="translate(-23.962 -40.919)"/>
      <path id="Path_4560" data-name="Path 4560" d="M51.188,43.072a17.391,17.391,0,0,0-4.738-8.8c-.325-.325-.665-.64-1.012-.936a.736.736,0,0,0-.956,1.12c.317.271.629.559.926.857a15.955,15.955,0,0,1,3.41,5.065,15.87,15.87,0,0,1,.927,2.99,16.108,16.108,0,0,1,0,6.424,15.859,15.859,0,0,1-2.394,5.7,16.008,16.008,0,0,1-4.3,4.3,15.807,15.807,0,0,1-5.687,2.4,16.122,16.122,0,0,1-6.414,0,15.805,15.805,0,0,1-5.688-2.4,15.949,15.949,0,0,1,2.7-27.9.736.736,0,1,0-.574-1.356,17.407,17.407,0,1,0,23.8,19.544,17.593,17.593,0,0,0,0-7.013Z" transform="translate(-16.777 -21.656)"/>
    </g>
  </g>
</svg>
