<svg xmlns="http://www.w3.org/2000/svg" width="193.691" height="184.865" viewBox="0 0 193.691 184.865">
  <g id="noun_revise_202110" transform="translate(0)">
    <g id="Group_1" data-name="Group 1">
      <rect id="Rectangle_1" data-name="Rectangle 1" width="28.237" height="6.033" transform="translate(62.288 66.61)"/>
      <rect id="Rectangle_2" data-name="Rectangle 2" width="50.198" height="6.033" transform="translate(62.288 79.642)"/>
      <path id="Path_2" data-name="Path 2" d="M-731.891,616.153a3.947,3.947,0,0,0-4.827,2.9,78.557,78.557,0,0,1-36.2,48.509,78.232,78.232,0,0,1-60.093,8.688c-42.234-10.619-68.057-53.818-57.439-96.294a79.563,79.563,0,0,1,91.709-58.4l-2.9,11.584,31.133-8.688L-793.674,502l-2.9,11.825a87.224,87.224,0,0,0-101.362,64.2C-909.758,624.6-881.28,672.385-834.7,684.21a83.09,83.09,0,0,0,21.479,2.654,87.093,87.093,0,0,0,44.648-12.308,86.666,86.666,0,0,0,40.062-53.577A4.646,4.646,0,0,0-731.891,616.153Z" transform="translate(900.609 -502)"/>
      <path id="Path_3" data-name="Path 3" d="M-735.724,520.475a14.029,14.029,0,0,0-19.548-1.448l-.965.966-1.448,1.207-5.551,4.827-.724.483-25.581,22.445h0l-1.448,1.206V534.473a4.229,4.229,0,0,0-4.1-4.1h-83.5a4.229,4.229,0,0,0-4.1,4.1v98.949a4.229,4.229,0,0,0,4.1,4.1h83.5a4.229,4.229,0,0,0,4.1-4.1V586.844l9.413-8.205,5.309-4.586,7.723-6.758,5.309-4.586,2.655-2.414,14.481-12.55,6.033-5.068,2.655-2.414.483-.483C-731.139,535.2-730.657,526.268-735.724,520.475ZM-798.955,629.56h-75.3V538.817h75.3v18.824l-16.894,14.721-6.758,5.793v-3.379h-41.028v6.033h37.89l-8.206,7.24h-29.685v6.033h26.065l-4.344,7.964-.483.724-6.516,12.55h0l-.483.724a3.172,3.172,0,0,0,.724,2.9,3.629,3.629,0,0,0,2.655.965h.242l.965-.241,28-10.136c.482-.241.723-.483.965-.483l17.135-14.722V629.56Zm-30.409-34.27h0a26.544,26.544,0,0,1,3.861,3.62,21.4,21.4,0,0,1,3.137,4.344h0a14.28,14.28,0,0,0,.966,1.931l-11.1,4.1-4.344-4.827,5.55-10.377h0A5.252,5.252,0,0,1-829.364,595.29Zm70.471-43.682-8.688,7.481-13.274,11.584-5.309,4.586-4.827,4.344-7.964,7-17.617,15.446a6.055,6.055,0,0,0-.966-1.69,32.334,32.334,0,0,0-3.861-5.309c-.242-.483-.724-.724-.966-1.207a46.3,46.3,0,0,0-3.62-3.379,5.043,5.043,0,0,0-1.448-.965l1.207-1.207.483-.482,17.135-14.963,9.413-8.205.965-.724,3.379-2.9,3.862-3.379,9.895-8.688,1.931-1.689,1.206-1.207,9.413-8.206a23.535,23.535,0,0,1,11.1,12.067Zm3.379-2.9a23.967,23.967,0,0,0-11.1-12.067l1.69-1.448a22.074,22.074,0,0,1,10.86,12.308Zm14.963-12.791-2.413,1.931-.966.965-.482.482-2.9,2.413-1.207.966-2.655,2.413-.965.724c-1.207-3.379-4.344-8.447-10.86-12.308l.241-.241.241-.241,4.344-3.861,2.655-2.413,2.655-2.414.724-.483h0l.483-.482a8.316,8.316,0,0,1,11.584.724A8.361,8.361,0,0,1-740.551,535.921Z" transform="translate(925.922 -482.585)"/>
    </g>
  </g>
</svg>
