<svg xmlns="http://www.w3.org/2000/svg" width="44.448" height="42.423" viewBox="0 0 44.448 42.423">
  <g id="noun_revise_202110" transform="translate(0)">
    <g id="Group_1" data-name="Group 1">
      <rect id="Rectangle_1" data-name="Rectangle 1" width="6.48" height="1.385" transform="translate(14.294 15.286)"/>
      <rect id="Rectangle_2" data-name="Rectangle 2" width="11.519" height="1.385" transform="translate(14.294 18.276)"/>
      <path id="Path_2" data-name="Path 2" d="M-861.892,528.2a.906.906,0,0,0-1.108.665,18.027,18.027,0,0,1-8.307,11.132,17.953,17.953,0,0,1-13.79,1.994,18.238,18.238,0,0,1-13.181-22.1,18.258,18.258,0,0,1,21.045-13.4l-.665,2.658,7.144-1.994L-876.07,502l-.665,2.714a20.016,20.016,0,0,0-23.26,14.732,20.116,20.116,0,0,0,14.51,24.368,19.068,19.068,0,0,0,4.929.609A19.986,19.986,0,0,0-870.31,541.6a19.888,19.888,0,0,0,9.193-12.295A1.066,1.066,0,0,0-861.892,528.2Z" transform="translate(900.609 -502)"/>
      <path id="Path_3" data-name="Path 3" d="M-848.972,516.824a3.219,3.219,0,0,0-4.486-.332l-.222.222-.332.277-1.274,1.108-.166.111-5.87,5.151h0l-.332.277v-3.6a.97.97,0,0,0-.941-.942h-19.162a.971.971,0,0,0-.942.942v22.707a.971.971,0,0,0,.942.942H-862.6a.971.971,0,0,0,.942-.942V532.054l2.16-1.883,1.218-1.052,1.772-1.551,1.218-1.052.609-.554,3.323-2.88,1.385-1.163.609-.554.111-.111A3.092,3.092,0,0,0-848.972,516.824Zm-14.51,25.033h-17.279V521.033h17.279v4.32l-3.877,3.378-1.551,1.329v-.775h-9.415v1.385h8.7l-1.883,1.661h-6.812v1.385h5.981l-1,1.828-.111.166-1.5,2.88h0l-.111.166a.728.728,0,0,0,.166.665.833.833,0,0,0,.609.222h.055l.221-.055,6.424-2.326c.111-.055.166-.111.222-.111l3.932-3.378v8.086Zm-6.978-7.864h0a6.091,6.091,0,0,1,.886.831,4.909,4.909,0,0,1,.72,1h0a3.289,3.289,0,0,0,.222.443l-2.548.941-1-1.108,1.274-2.381h0A1.205,1.205,0,0,1-870.461,533.992Zm16.172-10.024-1.994,1.717-3.046,2.658-1.218,1.052-1.108,1L-863.482,532l-4.043,3.545a1.39,1.39,0,0,0-.222-.388,7.419,7.419,0,0,0-.886-1.218c-.055-.111-.166-.166-.222-.277a10.627,10.627,0,0,0-.831-.775,1.158,1.158,0,0,0-.332-.221l.277-.277.111-.111,3.932-3.434,2.16-1.883.222-.166.775-.665.886-.775,2.271-1.994.443-.388.277-.277,2.16-1.883a5.4,5.4,0,0,1,2.548,2.769Zm.775-.665a5.5,5.5,0,0,0-2.548-2.769l.388-.332a5.065,5.065,0,0,1,2.492,2.825Zm3.434-2.935-.554.443-.222.222-.111.111-.665.554-.277.222-.609.554-.222.166a5.618,5.618,0,0,0-2.492-2.824l.055-.055.055-.055,1-.886.609-.554.609-.554.166-.111h0l.111-.111a1.908,1.908,0,0,1,2.658.166A1.919,1.919,0,0,1-850.08,520.368Z" transform="translate(892.618 -508.129)"/>
    </g>
  </g>
</svg>
