<svg id="noun_SEO_2345487" xmlns="http://www.w3.org/2000/svg" width="128" height="104" viewBox="0 0 128 104">
  <path id="Path_16" data-name="Path 16" d="M118,12H10A10.011,10.011,0,0,0,0,22V96a10.011,10.011,0,0,0,10,10H49v6H42a2,2,0,0,0,0,4H86a2,2,0,0,0,0-4H79v-6h39a10.011,10.011,0,0,0,10-10V22a10.011,10.011,0,0,0-10-10ZM75,112H53v-6H75Zm43-10H10a6,6,0,0,1-5.651-4h119.3A6,6,0,0,1,118,102Zm6-8H4V22a6,6,0,0,1,6-6H118a6,6,0,0,1,6,6Z" transform="translate(0 -12)" fill="#611f69"/>
  <path id="Path_17" data-name="Path 17" d="M85.338,84.972A8.942,8.942,0,0,1,84.51,84H29a1,1,0,0,1-1-1V40h72v8.031c.218-.016.436-.031.656-.031H102.3a8.934,8.934,0,0,1,1.7.163L104,25a5.006,5.006,0,0,0-5-5H29a5.006,5.006,0,0,0-5,5V83a5.006,5.006,0,0,0,5,5H89.237a8.8,8.8,0,0,1-2.729-1.86ZM28,25a1,1,0,0,1,1-1H99a1,1,0,0,1,1,1V36H28Z" transform="translate(0 -12)" fill="#611f69"/>
  <path id="Path_18" data-name="Path 18" d="M117.584,65.345a16.749,16.749,0,0,0-1.425-3.441,4.818,4.818,0,0,0-1.368-4.05l-1.165-1.165a4.792,4.792,0,0,0-3.411-1.413,4.9,4.9,0,0,0-.644.042,16.746,16.746,0,0,0-3.436-1.423A4.819,4.819,0,0,0,102.3,52h-1.647a4.819,4.819,0,0,0-3.831,1.9,16.743,16.743,0,0,0-3.437,1.423,4.9,4.9,0,0,0-.643-.042,4.792,4.792,0,0,0-3.411,1.413L88.17,57.854A4.819,4.819,0,0,0,86.8,61.9a16.745,16.745,0,0,0-1.426,3.441,4.819,4.819,0,0,0-1.9,3.831v1.647a4.819,4.819,0,0,0,1.9,3.831A16.748,16.748,0,0,0,86.8,78.1a4.819,4.819,0,0,0,1.368,4.05l1.165,1.165a4.792,4.792,0,0,0,3.411,1.413,4.9,4.9,0,0,0,.643-.042A16.744,16.744,0,0,0,96.825,86.1a4.819,4.819,0,0,0,3.831,1.9H102.3a4.819,4.819,0,0,0,3.831-1.9,16.746,16.746,0,0,0,3.437-1.423,4.9,4.9,0,0,0,.643.042,4.792,4.792,0,0,0,3.411-1.413l1.165-1.165a4.819,4.819,0,0,0,1.368-4.05,16.747,16.747,0,0,0,1.425-3.441,4.819,4.819,0,0,0,1.9-3.831V69.176a4.819,4.819,0,0,0-1.9-3.832Zm-2.1,5.478a.824.824,0,0,1-.824.824h-.521a12.7,12.7,0,0,1-2.542,6.137l.368.368a.824.824,0,0,1,0,1.165L110.8,80.482a.824.824,0,0,1-1.165,0l-.368-.368a12.7,12.7,0,0,1-6.137,2.542v.521A.824.824,0,0,1,102.3,84h-1.647a.824.824,0,0,1-.824-.824v-.521A12.7,12.7,0,0,1,93.7,80.113l-.368.368a.824.824,0,0,1-1.165,0L91,79.317a.824.824,0,0,1,0-1.165l.368-.368a12.7,12.7,0,0,1-2.542-6.137H88.3a.824.824,0,0,1-.824-.824V69.176a.824.824,0,0,1,.824-.824h.521a12.7,12.7,0,0,1,2.542-6.137L91,61.847a.824.824,0,0,1,0-1.165l1.165-1.165a.823.823,0,0,1,1.165,0l.368.368a12.7,12.7,0,0,1,6.137-2.542v-.521a.823.823,0,0,1,.823-.824H102.3a.823.823,0,0,1,.824.824v.521a12.7,12.7,0,0,1,6.137,2.542l.368-.368a.824.824,0,0,1,1.165,0l1.165,1.165a.824.824,0,0,1,0,1.165l-.368.368a12.7,12.7,0,0,1,2.542,6.137h.521a.824.824,0,0,1,.823.823Z" transform="translate(0 -12)" fill="#611f69"/>
  <path id="Path_19" data-name="Path 19" d="M101.48,62a8,8,0,1,0,8,8,8,8,0,0,0-8-8Zm0,12a4,4,0,1,1,4-4A4,4,0,0,1,101.48,74Z" transform="translate(0 -12)" fill="#611f69"/>
  <path id="Path_20" data-name="Path 20" d="M94,28H90a2,2,0,0,0,0,4h4a2,2,0,0,0,0-4Z" transform="translate(0 -12)" fill="#611f69"/>
  <path id="Path_21" data-name="Path 21" d="M82,28H78a2,2,0,0,0,0,4h4a2,2,0,0,0,0-4Z" transform="translate(0 -12)" fill="#611f69"/>
  <path id="Path_22" data-name="Path 22" d="M42,52H38a4,4,0,0,0-4,4V72a2,2,0,0,0,0,4H78a2,2,0,0,0,0-4V48a4,4,0,0,0-4-4H70a4,4,0,0,0-4,4V72H62V52a4,4,0,0,0-4-4H54a4,4,0,0,0-4,4V72H46V56A4,4,0,0,0,42,52Zm0,20H38V56h4ZM70,48h4V72H70ZM54,52h4V72H54Z" transform="translate(0 -12)" fill="#611f69"/>
</svg>
