<svg xmlns="http://www.w3.org/2000/svg" width="142.204" height="184.865" viewBox="0 0 142.204 184.865">
  <g id="noun_forms_1014775" transform="translate(-6 -3)">
    <g id="Group_6" data-name="Group 6" transform="translate(6 3)">
      <path id="Path_22" data-name="Path 22" d="M20.22,3A14.268,14.268,0,0,0,6,17.221V173.645a14.268,14.268,0,0,0,14.22,14.22H133.983a14.268,14.268,0,0,0,14.22-14.22V42.106q0-.028,0-.056t0-.056q0-.125-.014-.25-.006-.056-.014-.111a3.556,3.556,0,0,0-1.389-2.416L112.055,4.5,112,4.431A3.555,3.555,0,0,0,109.1,3Zm0,7.11h85.322V31.441a14.268,14.268,0,0,0,14.22,14.22h21.331V173.645a7.017,7.017,0,0,1-7.11,7.11H20.22a7.018,7.018,0,0,1-7.11-7.11V17.221A7.018,7.018,0,0,1,20.22,10.111Zm92.432,5.027,23.414,23.414h-16.3a7.017,7.017,0,0,1-7.11-7.11ZM37.69,81.212a3.737,3.737,0,1,0,.361,0,3.56,3.56,0,0,0-.361,0Zm14.22,0a3.56,3.56,0,0,0,.361,7.11h63.936a3.555,3.555,0,1,0,0-7.111H52.272a3.554,3.554,0,0,0-.361,0ZM37.69,95.433a3.737,3.737,0,1,0,.361,0,3.56,3.56,0,0,0-.361,0Zm14.22,0a3.56,3.56,0,0,0,.361,7.11h63.936a3.555,3.555,0,1,0,0-7.111H52.272A3.56,3.56,0,0,0,51.91,95.433Zm-14.22,14.22a3.737,3.737,0,1,0,.361,0,3.56,3.56,0,0,0-.361,0Zm14.22,0a3.56,3.56,0,1,0,.361,7.11h63.936a3.555,3.555,0,1,0,0-7.111H52.272A3.56,3.56,0,0,0,51.91,109.653Z" transform="translate(-6 -3)"/>
    </g>
  </g>
</svg>
